<svg width="0" height="0" class="hidden">
  <symbol xmlns="http://www.w3.org/2000/svg" viewBox="0 0 17 24" id="architect">
    <path fill-rule="evenodd" clip-rule="evenodd" d="M9.19825 0V1.70674C8.96546 1.65929 8.7244 1.63411 8.47739 1.63411C8.23037 1.63411 7.98932 1.65929 7.75653 1.70674V0H9.19825ZM8.44798 9.10046L7.3996 11.7708V11.7708H3.55448L5.49658 6.92366C6.12252 7.88896 7.22429 8.53155 8.47739 8.53155C9.70694 8.53155 10.791 7.91297 11.4226 6.97788L13.3442 11.7708H9.49741L8.44798 9.10046ZM10.5633 5.08283C10.5633 6.20907 9.62939 7.12207 8.47739 7.12207C7.32539 7.12207 6.3915 6.20907 6.3915 5.08283C6.3915 3.95659 7.32539 3.04359 8.47739 3.04359C9.62939 3.04359 10.5633 3.95659 10.5633 5.08283ZM0.252734 14.5842V13.1803H17V14.5842H14.4722L16.8945 20.6258L15.9227 20.9992L16.901 23.4293L15.5594 23.9455L14.5809 21.5147L13.4913 21.9332L10.6031 14.5842H9.19825V16.3682H7.75653V14.5842H6.2951L3.40982 21.9332L2.33905 21.5219L1.34157 24L0 23.4838L0.997193 21.0064L0.0064397 20.6258L2.42719 14.5842H0.252734Z"></path>
  </symbol>

  <symbol xmlns="http://www.w3.org/2000/svg" viewBox="0 0 25 23" id="about">
    <path fill-rule="evenodd" clip-rule="evenodd" d="M22.6798 22.2069V19.7304C23.2022 19.4223 23.5083 18.8472 23.4723 18.2414C23.4723 17.3654 22.9402 16.6552 22.2836 16.6552C21.6269 16.6552 21.0949 17.3654 21.0949 18.2414C21.0589 18.8472 21.365 19.4223 21.8873 19.7304V22.2069H19.1137V10.1589L16.7363 8.96927V11.1034H17.925V11.8966H16.7363V13.4828H17.925V14.2759H16.7363V15.8621H17.925V16.6552H16.7363V18.2414H17.925V19.0345H16.7363V20.6207H17.925V21.4138H16.7363V22.2069H15.9438V6.24724L11.189 4.88796V6.34483H13.9627V7.13793H11.189V8.72414H13.9627V9.51724H11.189V11.1034H13.9627V11.8966H11.189V13.4828H13.9627V14.2759H11.189V15.8621H13.9627V16.6552H11.189V18.2414H13.9627V19.0345H11.189V20.6207H13.9627V21.4138H11.189V22.2069H10.3966V0H3.26436V1.58621H6.83047V2.37931H3.26436V3.96552H6.83047V4.75862H3.26436V6.34483H6.83047V7.13793H3.26436V8.72414H6.83047V9.51724H3.26436V11.1034H6.83047V11.8966H3.26436V13.4828H6.83047V14.2759H3.26436V15.8621H6.83047V16.6552H3.26436V18.2414H6.83047V19.0345H3.26436V20.6207H6.83047V21.4138H3.26436V22.2069H0.886963V23H24.661V22.2069H22.6798Z"></path>
  </symbol>

  <symbol xmlns="http://www.w3.org/2000/svg" viewBox="0 0 24 22" id="team">
    <path fill-rule="evenodd" clip-rule="evenodd" d="M16 4.19048C16 6.50481 14.2091 8.38095 12 8.38095C9.79086 8.38095 8 6.50481 8 4.19048C8 1.87614 9.79086 0 12 0C14.2091 0 16 1.87614 16 4.19048ZM5 9.42857C6.65685 9.42857 8 8.02147 8 6.28571C8 4.54996 6.65685 3.14286 5 3.14286C3.34315 3.14286 2 4.54996 2 6.28571C2 8.02147 3.34315 9.42857 5 9.42857ZM19 9.42857C20.6569 9.42857 22 8.02147 22 6.28571C22 4.54996 20.6569 3.14286 19 3.14286C17.3431 3.14286 16 4.54996 16 6.28571C16 8.02147 17.3431 9.42857 19 9.42857ZM18.4625 10.4762H22C23.1046 10.4762 24 11.4143 24 12.5714V18.8571C24 19.4357 23.5523 19.9048 23 19.9048H19V12.5714C19.0007 11.8355 18.8152 11.1126 18.4625 10.4762ZM5.53813 10.4762H2C0.89543 10.4762 0 11.4143 0 12.5714V18.8571C0 19.4357 0.447715 19.9048 1 19.9048H5V12.5714C4.99949 11.8355 5.18517 11.1125 5.53813 10.4762ZM14 8.38095H15C16.6569 8.38095 18 9.78806 18 11.5238V20.9524C18 21.531 17.5523 22 17 22H7C6.44772 22 6 21.531 6 20.9524V11.5238C6 9.78806 7.34315 8.38095 9 8.38095H10L12 14.6667L14 8.38095Z"></path>
  </symbol>

  <symbol xmlns="http://www.w3.org/2000/svg" viewBox="0 0 21 8" id="left_arrow">
    <path d="M20.5 3.5C20.7761 3.5 21 3.72386 21 4C21 4.27614 20.7761 4.5 20.5 4.5V3.5ZM0.146446 4.35355C-0.0488148 4.15829 -0.0488148 3.84171 0.146446 3.64645L3.32843 0.464466C3.52369 0.269204 3.84027 0.269204 4.03553 0.464466C4.2308 0.659728 4.2308 0.976311 4.03553 1.17157L1.20711 4L4.03553 6.82843C4.2308 7.02369 4.2308 7.34027 4.03553 7.53553C3.84027 7.7308 3.52369 7.7308 3.32843 7.53553L0.146446 4.35355ZM20.5 4.5H0.5V3.5H20.5V4.5Z"></path>
  </symbol>

  <symbol xmlns="http://www.w3.org/2000/svg" viewBox="0 0 21 8" id="right_arrow">
    <path d="M0.5 3.5C0.223858 3.5 0 3.72386 0 4C0 4.27614 0.223858 4.5 0.5 4.5V3.5ZM20.8536 4.35355C21.0488 4.15829 21.0488 3.84171 20.8536 3.64645L17.6716 0.464466C17.4763 0.269204 17.1597 0.269204 16.9645 0.464466C16.7692 0.659728 16.7692 0.976311 16.9645 1.17157L19.7929 4L16.9645 6.82843C16.7692 7.02369 16.7692 7.34027 16.9645 7.53553C17.1597 7.7308 17.4763 7.7308 17.6716 7.53553L20.8536 4.35355ZM0.5 4.5H20.5V3.5H0.5V4.5Z"></path>
  </symbol>

  <symbol xmlns="http://www.w3.org/2000/svg" viewBox="0 0 22 21" id="news">
    <path fill-rule="evenodd" clip-rule="evenodd" d="M17.1032 20.9372C16.6976 20.3877 16.4569 19.7051 16.4569 18.9662V0.657026C16.4569 0.294173 16.1683 0 15.8123 0H0.644525C0.288575 0 0 0.294173 0 0.657026V17.6521C0 19.4635 1.44567 20.9372 3.22263 20.9372H17.1032ZM3.43747 12.6149H5.49995C5.8559 12.6149 6.14447 12.9091 6.14447 13.2719C6.14447 13.6348 5.8559 13.929 5.49995 13.929H3.43747C3.08152 13.929 2.79294 13.6348 2.79294 13.2719C2.79294 12.9091 3.08152 12.6149 3.43747 12.6149ZM3.43747 9.81159C3.08152 9.81159 2.79294 10.1058 2.79294 10.4686C2.79294 10.8315 3.08152 11.1256 3.43747 11.1256H5.49995C5.8559 11.1256 6.14447 10.8315 6.14447 10.4686C6.14447 10.1058 5.8559 9.81159 5.49995 9.81159H3.43747ZM13.0624 17.7835H3.43747C3.08152 17.7835 2.79294 17.4893 2.79294 17.1265C2.79294 16.7636 3.08152 16.4695 3.43747 16.4695H13.0624C13.4183 16.4695 13.7069 16.7636 13.7069 17.1265C13.7069 17.4893 13.4183 17.7835 13.0624 17.7835ZM13.0624 14.9802C13.4183 14.9802 13.7069 14.686 13.7069 14.3232V9.41738C13.7069 9.05452 13.4183 8.76035 13.0624 8.76035H8.24992C7.89397 8.76035 7.6054 9.05452 7.6054 9.41738V14.3232C7.6054 14.686 7.89397 14.9802 8.24992 14.9802H13.0624ZM13.0624 7.27109H3.43747C3.08152 7.27109 2.79294 6.97692 2.79294 6.61406C2.79294 6.25121 3.08152 5.95704 3.43747 5.95704H13.0624C13.4183 5.95704 13.7069 6.25121 13.7069 6.61406C13.7069 6.97692 13.4183 7.27109 13.0624 7.27109ZM3.43747 4.46778H13.0624C13.4183 4.46778 13.7069 4.17361 13.7069 3.81075C13.7069 3.4479 13.4183 3.15373 13.0624 3.15373H3.43747C3.08152 3.15373 2.79294 3.4479 2.79294 3.81075C2.79294 4.17361 3.08152 4.46778 3.43747 4.46778ZM8.89445 10.0744H12.4179V13.6661H8.89445V10.0744ZM17.7459 4.55538H21.3553C21.7112 4.55538 21.9998 4.84956 21.9998 5.21241C21.9998 18.6184 22.0009 18.9188 21.9981 18.9188C21.9979 18.9188 21.9978 18.9182 21.9976 18.9182C21.9424 20.3381 20.5799 21.318 19.2511 20.9046C18.4204 20.6463 17.8054 19.8839 17.7498 18.9666C17.7494 18.9666 17.7491 18.9683 17.7488 18.9683C17.744 18.9682 17.7459 18.546 17.7459 4.55538Z"></path>
  </symbol>

  <symbol xmlns="http://www.w3.org/2000/svg" viewBox="0 0 87 36" id="logo">
    <path d="M0 34.48L12.92 1.48H14.96L27.88 34.48H25.52L21.2 23.22H6.7L2.36 34.48H0ZM7.44 21.28H20.46L13.94 4.32001L7.44 21.28Z"></path>
    <path d="M35.0859 34.48V1.48H42.9859C45.1193 1.48 46.9593 1.85334 48.5059 2.6C50.0526 3.33334 51.2459 4.38667 52.0859 5.76C52.9393 7.12 53.3659 8.74667 53.3659 10.64C53.3659 12.44 52.9859 14.02 52.2259 15.38C51.4659 16.74 50.3926 17.8267 49.0059 18.64C47.6326 19.4533 45.9993 19.9267 44.1059 20.06L55.1259 34.48H52.3459L41.5659 20.22H37.2659V34.48H35.0859ZM37.2659 18.28H42.5859C44.3326 18.28 45.8459 17.9667 47.1259 17.34C48.4193 16.7133 49.4193 15.8333 50.1259 14.7C50.8326 13.5667 51.1859 12.2267 51.1859 10.68C51.1859 8.38667 50.4193 6.58 48.8859 5.26C47.3526 3.94 45.2526 3.28 42.5859 3.28H37.2659V18.28Z"></path>
    <path d="M75.7487 35.12C73.2821 35.12 70.9954 34.6867 68.8888 33.82C66.7954 32.9533 64.9688 31.7467 63.4088 30.2C61.8488 28.64 60.6354 26.8267 59.7688 24.76C58.9154 22.68 58.4888 20.4267 58.4888 18C58.4888 15.5733 58.9154 13.3267 59.7688 11.26C60.6354 9.18001 61.8488 7.36667 63.4088 5.82C64.9688 4.26 66.7954 3.04667 68.8888 2.18C70.9954 1.31334 73.2821 0.880005 75.7487 0.880005C77.8288 0.880005 79.7688 1.18667 81.5688 1.8C83.3821 2.41334 84.9954 3.26667 86.4088 4.36001L85.3088 6.16001C84.0688 5.14667 82.6421 4.37334 81.0288 3.84C79.4154 3.30667 77.7021 3.04001 75.8888 3.04001C73.6888 3.04001 71.6687 3.42667 69.8288 4.20001C68.0021 4.96001 66.4154 6.02001 65.0687 7.38001C63.7354 8.74001 62.7021 10.3267 61.9688 12.14C61.2487 13.9533 60.8888 15.9067 60.8888 18C60.8888 20.0933 61.2487 22.0467 61.9688 23.86C62.7021 25.6733 63.7354 27.26 65.0687 28.62C66.4154 29.98 68.0021 31.0467 69.8288 31.82C71.6687 32.58 73.6888 32.96 75.8888 32.96C77.7021 32.96 79.4154 32.6933 81.0288 32.16C82.6421 31.6267 84.0688 30.8533 85.3088 29.84L86.4088 31.64C85.0088 32.72 83.4021 33.5733 81.5888 34.2C79.7887 34.8133 77.8421 35.12 75.7487 35.12Z"></path>
  </symbol>

  <symbol fill="none" xmlns="http://www.w3.org/2000/svg" viewBox="0 0 48 48" id="facebook">
    <circle cx="24" cy="24" r="24" fill="#EF6039"></circle>
    <path d="M21.6667 21.3333H19V24H21.6667V32H25.6667V24H28.0933L28.3333 21.3333H25.6667V20.2227C25.6667 19.5853 25.7947 19.3333 26.4107 19.3333H28.3333V16H25.128C22.7307 16 21.6667 17.056 21.6667 19.0773V21.3333Z" fill="white"></path>
  </symbol>
  
  <symbol fill="none" xmlns="http://www.w3.org/2000/svg" viewBox="0 0 48 48" id="instagram">
    <circle cx="24" cy="24" r="24" fill="#EF6039"></circle>
    <path fill-rule="evenodd" clip-rule="evenodd" d="M24 16C21.8267 16 21.556 16.0093 20.7013 16.0493C17.7947 16.1827 16.1813 17.7947 16.048 20.7013C16.0093 21.556 16 21.828 16 24C16 26.1733 16.0093 26.4453 16.048 27.2987C16.1813 30.204 17.7947 31.8187 20.7013 31.952C21.556 31.9907 21.8267 32 24 32C26.1733 32 26.4453 31.9907 27.3 31.952C30.2013 31.8187 31.8213 30.2067 31.952 27.2987C31.9907 26.4453 32 26.1733 32 24C32 21.828 31.9907 21.556 31.952 20.7013C31.8213 17.7987 30.2067 16.1813 27.3 16.0493C26.4453 16.0093 26.1733 16 24 16ZM24 17.4427C26.136 17.4427 26.3893 17.4507 27.2333 17.4893C29.4027 17.588 30.4133 18.616 30.5133 20.768C30.5507 21.612 30.5587 21.864 30.5587 24C30.5587 26.136 30.5507 26.3893 30.5133 27.232C30.4133 29.3827 29.404 30.4133 27.2333 30.512C26.3893 30.5493 26.1373 30.5587 24 30.5587C21.864 30.5587 21.6107 30.5507 20.768 30.512C18.5947 30.412 17.588 29.38 17.488 27.232C17.4507 26.3893 17.4413 26.136 17.4413 24C17.4413 21.864 17.4507 21.6107 17.488 20.768C17.5867 18.6147 18.5973 17.5867 20.768 17.488C21.6107 17.4493 21.864 17.4427 24 17.4427ZM19.892 24C19.892 21.7307 21.732 19.892 24 19.892C26.268 19.892 28.108 21.732 28.108 24C28.108 26.2693 26.268 28.108 24 28.108C21.732 28.108 19.892 26.2693 19.892 24ZM24 26.6667C22.5267 26.6667 21.3333 25.4733 21.3333 24C21.3333 22.528 22.5267 21.3333 24 21.3333C25.472 21.3333 26.668 22.5267 26.668 24C26.668 25.4733 25.472 26.6667 24 26.6667ZM27.3093 19.7307C27.3093 19.2 27.74 18.7707 28.2693 18.7707C28.8013 18.7707 29.2307 19.2 29.2307 19.7307C29.2307 20.2613 28.8 20.6907 28.2693 20.6907C27.7387 20.6907 27.3093 20.26 27.3093 19.7307Z" fill="white"></path>
  </symbol>

  <symbol fill="none" xmlns="http://www.w3.org/2000/svg" viewBox="0 0 48 48" id="twitter">
    <circle cx="24" cy="24" r="24" fill="#EF6039"></circle>
    <path d="M32 19.54C31.412 19.8013 30.7787 19.9773 30.1147 20.0573C30.7933 19.6507 31.312 19.008 31.5587 18.2413C30.924 18.6173 30.2213 18.8907 29.4733 19.0373C28.876 18.3987 28.0213 18 27.0787 18C24.9587 18 23.4013 19.9773 23.88 22.0307C21.1533 21.8933 18.7333 20.5867 17.1147 18.6013C16.2547 20.076 16.6693 22.0067 18.1307 22.984C17.5933 22.9667 17.088 22.8187 16.6453 22.5733C16.6093 24.0933 17.7 25.516 19.2787 25.8333C18.8173 25.9587 18.3107 25.988 17.796 25.8893C18.2133 27.1933 19.428 28.1413 20.8627 28.168C19.48 29.2507 17.7427 29.7347 16 29.5293C17.4533 30.4613 19.1773 31.004 21.0307 31.004C27.1267 31.004 30.5693 25.856 30.3613 21.2387C31.004 20.7773 31.56 20.1987 32 19.54Z" fill="white"></path>
  </symbol>

  <symbol xmlns="http://www.w3.org/2000/svg" viewBox="0 0 16 14" id="more_menu">
    <path fill-rule="evenodd" clip-rule="evenodd" d="M0 0H16V2H0V0ZM0 6H16V8H0V6ZM16 12H0V14H16V12Z"></path>
  </symbol>
</svg>