<svg width="21" height="8" viewBox="0 0 21 8" fill="none" xmlns="http://www.w3.org/2000/svg">
<path d="M20.5 3.5C20.7761 3.5 21 3.72386 21 4C21 4.27614 20.7761 4.5 20.5 4.5V3.5ZM0.146446 4.35355C-0.0488148 4.15829 -0.0488148 3.84171 0.146446 3.64645L3.32843 0.464466C3.52369 0.269204 3.84027 0.269204 4.03553 0.464466C4.2308 0.659728 4.2308 0.976311 4.03553 1.17157L1.20711 4L4.03553 6.82843C4.2308 7.02369 4.2308 7.34027 4.03553 7.53553C3.84027 7.7308 3.52369 7.7308 3.32843 7.53553L0.146446 4.35355ZM20.5 4.5H0.5V3.5H20.5V4.5Z" fill="#EF6039"/>
</svg>
